<svg height="512pt" viewBox="0 -32 512 512" width="512pt" xmlns="http://www.w3.org/2000/svg"><path d="m464.515625 0h-417.03125c-26.183594 0-47.484375 21.300781-47.484375 47.484375v272.226563c0 26.179687 21.300781 47.480468 47.484375 47.480468h24.578125c4.199219 0 7.605469-3.402344 7.605469-7.601562 0-4.199219-3.40625-7.605469-7.605469-7.605469h-24.578125c-17.796875 0-32.277344-14.476563-32.277344-32.273437v-272.226563c0-17.796875 14.480469-32.277344 32.277344-32.277344h417.03125c17.796875 0 32.277344 14.480469 32.277344 32.277344v272.226563c0 17.796874-14.480469 32.273437-32.277344 32.273437h-362.039063c-4.199218 0-7.601562 3.40625-7.601562 7.605469 0 4.199218 3.402344 7.601562 7.601562 7.601562h78.210938l-19.695312 37.386719h-10.121094c-12.003906 0-21.765625 9.765625-21.765625 21.765625s9.761719 21.765625 21.765625 21.765625h210.261718c12 0 21.761719-9.765625 21.761719-21.765625s-9.761719-21.765625-21.761719-21.765625h-10.125l-19.695312-37.386719h133.203125c26.183594 0 47.484375-21.300781 47.484375-47.480468v-272.226563c0-26.183594-21.300781-47.484375-47.484375-47.484375zm-96.828125 426.34375c0 3.617188-2.941406 6.558594-6.558594 6.558594h-210.257812c-3.617188 0-6.558594-2.941406-6.558594-6.558594 0-3.613281 2.941406-6.554688 6.558594-6.554688h210.261718c3.613282 0 6.554688 2.941407 6.554688 6.554688zm-33.871094-21.761719h-155.636718l19.699218-37.390625h116.242188zm0 0"/><path d="m384.671875 28.554688h-319.175781c-22.113282 0-40.105469 17.992187-40.105469 40.101562v195.378906c0 22.113282 17.992187 40.105469 40.105469 40.105469h381.007812c22.113282 0 40.105469-17.992187 40.105469-40.105469v-195.378906c0-22.113281-17.992187-40.101562-40.105469-40.101562h-31.414062c-4.203125 0-7.605469 3.402343-7.605469 7.605468 0 4.199219 3.402344 7.601563 7.605469 7.601563h31.414062c13.726563 0 24.898438 11.167969 24.898438 24.894531v195.378906c0 13.730469-11.171875 24.898438-24.898438 24.898438h-182.898437v-245.171875h121.066406c4.199219 0 7.605469-3.402344 7.605469-7.601563 0-4.203125-3.40625-7.605468-7.605469-7.605468zm-319.175781 260.378906c-13.726563 0-24.898438-11.171875-24.898438-24.898438v-149.492187h207.796875v174.390625zm182.898437-189.597656h-207.796875v-30.679688c0-13.726562 11.171875-24.894531 24.898438-24.894531h182.898437zm0 0"/><path d="m51.148438 72.125c0 11.257812 9.160156 20.417969 20.417968 20.417969 11.257813 0 20.417969-9.160157 20.417969-20.417969 0-11.261719-9.160156-20.417969-20.417969-20.417969-11.257812 0-20.417968 9.15625-20.417968 20.417969zm20.417968-5.210938c2.871094 0 5.210938 2.335938 5.210938 5.207032 0 2.875-2.339844 5.210937-5.210938 5.210937s-5.210937-2.335937-5.210937-5.210937c0-2.871094 2.339843-5.207032 5.210937-5.207032zm0 0"/><path d="m120.347656 92.539062c11.257813 0 20.417969-9.15625 20.417969-20.417968 0-11.257813-9.160156-20.417969-20.417969-20.417969-11.261718 0-20.417968 9.160156-20.417968 20.417969 0 11.261718 9.160156 20.417968 20.417968 20.417968zm0-25.625c2.871094 0 5.207032 2.335938 5.207032 5.207032 0 2.875-2.335938 5.210937-5.207032 5.210937-2.875 0-5.210937-2.335937-5.210937-5.210937 0-2.871094 2.335937-5.207032 5.210937-5.207032zm0 0"/><path d="m169.128906 92.539062c11.257813 0 20.414063-9.15625 20.414063-20.417968 0-11.257813-9.15625-20.417969-20.414063-20.417969-11.257812 0-20.417968 9.160156-20.417968 20.417969 0 11.261718 9.160156 20.417968 20.417968 20.417968zm0-25.625c2.871094 0 5.207032 2.335938 5.207032 5.207032 0 2.875-2.335938 5.210937-5.207032 5.210937-2.875 0-5.210937-2.335937-5.210937-5.210937 0-2.871094 2.335937-5.207032 5.210937-5.207032zm0 0"/><path d="m63.410156 159.894531h163.476563c4.199219 0 7.601562-3.40625 7.601562-7.605469 0-4.199218-3.402343-7.601562-7.601562-7.601562h-163.476563c-4.203125 0-7.605468 3.402344-7.605468 7.601562 0 4.199219 3.402343 7.605469 7.605468 7.605469zm0 0"/><path d="m226.886719 177.890625h-163.476563c-4.203125 0-7.605468 3.402344-7.605468 7.601563 0 4.203124 3.402343 7.605468 7.605468 7.605468h163.476563c4.199219 0 7.601562-3.402344 7.601562-7.605468 0-4.199219-3.402343-7.601563-7.601562-7.601563zm0 0"/><path d="m189.515625 211.09375h-126.105469c-4.203125 0-7.605468 3.40625-7.605468 7.605469s3.402343 7.601562 7.605468 7.601562h126.105469c4.199219 0 7.601563-3.402343 7.601563-7.601562s-3.402344-7.605469-7.601563-7.605469zm0 0"/><path d="m326.121094 126.265625c-2.96875-2.96875-7.78125-2.96875-10.753906 0l-36.234376 36.238281c-1.425781 1.425782-2.226562 3.359375-2.226562 5.375 0 2.019532.800781 3.953125 2.226562 5.378906l36.234376 36.238282c1.488281 1.480468 3.433593 2.226562 5.378906 2.226562 1.945312 0 3.890625-.742187 5.378906-2.226562 2.96875-2.972656 2.96875-7.785156 0-10.753906l-30.863281-30.859376 30.863281-30.863281c2.96875-2.96875 2.96875-7.785156-.003906-10.753906zm0 0"/><path d="m393.832031 209.496094c1.488281 1.484375 3.433594 2.226562 5.378907 2.226562 1.945312 0 3.890624-.742187 5.378906-2.226562l36.234375-36.238282c1.425781-1.425781 2.226562-3.359374 2.226562-5.378906 0-2.015625-.800781-3.949218-2.226562-5.375l-36.234375-36.238281c-2.972656-2.96875-7.789063-2.96875-10.753906 0-2.972657 2.96875-2.972657 7.785156 0 10.753906l30.859374 30.859375-30.859374 30.859375c-2.972657 2.972657-2.972657 7.785157-.003907 10.757813zm0 0"/><path d="m366.5 108.742188-28.320312 114.628906c-1.007813 4.078125 1.480468 8.199218 5.558593 9.207031.613281.152344 1.226563.226563 1.832031.226563 3.414063 0 6.519532-2.320313 7.375-5.785157l28.320313-114.628906c1.007813-4.078125-1.480469-8.199219-5.558594-9.207031-4.078125-1.007813-8.199219 1.480468-9.207031 5.558594zm0 0"/></svg>