<svg id="Layer_5" enable-background="new 0 0 64 64" height="512" viewBox="0 0 64 64" width="512" xmlns="http://www.w3.org/2000/svg"><path d="m32.992 45.876c-.502-4.011-3.325-7.232-7.012-8.398 1.236-1.1 2.02-2.697 2.02-4.478 0-3.309-2.691-6-6-6s-6 2.691-6 6c0 1.781.784 3.378 2.02 4.478-3.687 1.167-6.51 4.387-7.012 8.398l-.141 1.124h22.266zm-10.992-16.876c2.206 0 4 1.794 4 4s-1.794 4-4 4-4-1.794-4-4 1.794-4 4-4zm-8.786 16c.948-3.489 4.143-6 7.849-6h1.875c3.706 0 6.9 2.511 7.849 6z"/><path d="m49.45 5.703-.45-.227-.45.228c-2.693 1.358-5.586 2.122-8.599 2.271l-.951.046v6.378c0 6.323 3.778 11.932 9.626 14.289l.374.15.374-.15c5.848-2.358 9.626-7.966 9.626-14.29v-6.377l-.951-.047c-3.012-.149-5.904-.912-8.599-2.271zm7.55 8.695c0 5.367-3.127 10.142-8 12.276-4.873-2.135-8-6.909-8-12.276v-4.493c2.786-.249 5.471-.985 8-2.195 2.529 1.21 5.215 1.946 8 2.195z"/><path d="m59.101 4c-3.155 0-6.254-.858-8.96-2.481l-1.141-.686-1.141.686c-2.706 1.623-5.804 2.481-8.96 2.481h-3.899v2.382l-2.764-1.382h-16.316c-1.42-2.449-4.069-4-6.92-4-4.411 0-8 3.589-8 8s3.589 8 8 8c2.851 0 5.5-1.551 6.92-4h7.08v2c0 1.103.897 2 2 2h2v-2h-2v-2h6v2h-2v2h2c1.103 0 2-.897 2-2v-2.382l2-1v2.78c0 1.58.19 3.121.546 4.602h-27.546c-2.757 0-5 2.243-5 5v29h-2v5c0 2.757 2.243 5 5 5h44c2.757 0 5-2.243 5-5v-5h-2v-21.63c6.104-3.364 10-9.766 10-16.972v-10.398zm-27.337 7h-17.078l-.271.57c-.991 2.084-3.117 3.43-5.415 3.43-3.309 0-6-2.691-6-6s2.691-6 6-6c2.298 0 4.424 1.346 5.414 3.43l.272.57h17.078l3.236 1.618v.764zm21.236 47c0 1.654-1.346 3-3 3h-44c-1.654 0-3-1.346-3-3v-3h18v1c0 1.654 1.346 3 3 3h8c1.654 0 3-1.346 3-3v-1h18zm-30-3h10v1c0 .552-.448 1-1 1h-8c-.552 0-1-.448-1-1zm28-2h-46v-29c0-1.654 1.346-3 3-3h28.154c.245.685.527 1.352.846 2h-28c-1.103 0-2 .897-2 2v24c0 1.103.897 2 2 2h38c1.103 0 2-.897 2-2v-15.954l.294-.09c.584-.18 1.15-.391 1.706-.62zm-4-20.664v16.664h-38v-24h29.135c2.099 3.228 5.152 5.81 8.865 7.336zm14-17.938c0 7.591-4.809 14.204-12 16.553-7.191-2.349-12-8.962-12-16.553v-8.398h1.899c3.518 0 6.972-.957 9.989-2.767l.112-.066.111.066c3.018 1.81 6.472 2.767 9.99 2.767h1.899z"/><path d="m44 15c0 1.563.754 3.04 2 3.979v4.021h6v-4.021c1.246-.939 2-2.416 2-3.979 0-2.757-2.243-5-5-5s-5 2.243-5 5zm8 0c0 1.068-.562 2.033-1.503 2.581l-.497.289v3.13h-2v-3.13l-.497-.289c-.941-.548-1.503-1.513-1.503-2.581 0-1.654 1.346-3 3-3s3 1.346 3 3z"/><path d="m43 45h2v2h-2z"/><path d="m35 45h6v2h-6z"/><path d="m35 41h10v2h-10z"/><path d="m35 37h10v2h-10z"/><path d="m35 33h10v2h-10z"/><path d="m11 27h2v2h-2z"/><path d="m11 31h2v2h-2z"/><path d="m11 35h2v2h-2z"/><path d="m8 6c-1.654 0-3 1.346-3 3s1.346 3 3 3 3-1.346 3-3-1.346-3-3-3zm0 4c-.552 0-1-.448-1-1s.448-1 1-1 1 .448 1 1-.448 1-1 1z"/></svg>