<svg height="512pt" viewBox="0 -52 512 512" width="512pt" xmlns="http://www.w3.org/2000/svg"><path d="m451.941406 0h-391.878906c-33.117188 0-60.0625 26.945312-60.0625 60.0625v287.527344c0 33.121094 26.945312 60.0625 60.0625 60.0625h391.878906c33.117188 0 60.058594-26.941406 60.058594-60.0625v-287.527344c0-33.117188-26.941406-60.0625-60.058594-60.0625zm44.851563 347.589844c0 24.734375-20.121094 44.855468-44.851563 44.855468h-391.878906c-24.734375 0-44.855469-20.121093-44.855469-44.855468v-287.527344c0-24.734375 20.121094-44.855469 44.855469-44.855469h391.878906c24.730469 0 44.851563 20.121094 44.851563 44.855469zm0 0"/><path d="m413.324219 25.753906h-314.648438c-28.464843 0-51.625 23.160156-51.625 51.625v252.894532c0 28.464843 23.160157 51.625 51.625 51.625h314.652344c28.464844 0 51.621094-23.160157 51.621094-51.625v-188.6875c0-4.199219-3.402344-7.605469-7.601563-7.605469-4.203125 0-7.605468 3.40625-7.605468 7.605469v188.6875c0 20.082031-16.335938 36.414062-36.414063 36.414062h-149.722656v-325.722656h149.722656c20.078125 0 36.414063 16.335937 36.414063 36.414062v33.789063c0 4.199219 3.402343 7.605469 7.605468 7.605469 4.199219 0 7.601563-3.40625 7.601563-7.605469v-33.789063c0-28.464844-23.15625-51.625-51.625-51.625zm-164.929688 340.933594h-149.71875c-20.082031 0-36.417969-16.335938-36.417969-36.414062v-252.894532c0-20.082031 16.335938-36.417968 36.417969-36.417968h149.71875zm0 0"/><path d="m115.007812 271.671875c3.402344 1.964844 7.136719 2.949219 10.875 2.949219 3.730469 0 7.460938-.980469 10.859376-2.941406l3.882812-2.242188c3.636719-2.097656 4.882812-6.746094 2.785156-10.386719-2.097656-3.636719-6.75-4.882812-10.386718-2.785156l-3.882813 2.242187c-2.941406 1.699219-5.546875.5625-6.527344-.003906-.980469-.570312-3.269531-2.257812-3.269531-5.660156v-88.628906c0-3.402344 2.285156-5.089844 3.269531-5.65625.980469-.566406 3.582031-1.699219 6.527344 0l76.761719 44.316406c2.941406 1.699219 3.257812 4.519531 3.257812 5.652344 0 1.132812-.316406 3.953125-3.261718 5.652344l-46.6875 26.960937c-3.636719 2.097656-4.882813 6.75-2.785157 10.386719 2.101563 3.636718 6.753907 4.882812 10.390625 2.78125l46.6875-26.957032c6.804688-3.925781 10.867188-10.960937 10.867188-18.820312 0-7.863281-4.0625-14.898438-10.867188-18.824219l-76.757812-44.3125c-6.800782-3.933593-14.925782-3.9375-21.734375-.007812-6.808594 3.925781-10.875 10.96875-10.875 18.828125v88.632812c0 7.855469 4.0625 14.894532 10.871093 18.824219zm0 0"/><path d="m438.066406 83.285156c0-15.925781-12.957031-28.882812-28.882812-28.882812h-104.441406c-15.925782 0-28.882813 12.957031-28.882813 28.882812v49.15625c0 15.925782 12.957031 28.882813 28.882813 28.882813h104.441406c15.925781 0 28.882812-12.957031 28.882812-28.882813zm-15.210937 49.15625c0 7.542969-6.132813 13.675782-13.671875 13.675782h-104.441406c-7.539063 0-13.675782-6.132813-13.675782-13.675782v-49.15625c0-7.539062 6.136719-13.675781 13.675782-13.675781h104.441406c7.539062 0 13.671875 6.136719 13.671875 13.675781zm0 0"/><path d="m430.460938 176.300781h-147c-4.199219 0-7.601563 3.40625-7.601563 7.605469s3.402344 7.601562 7.601563 7.601562h147c4.199218 0 7.601562-3.402343 7.601562-7.601562s-3.402344-7.605469-7.601562-7.605469zm0 0"/><path d="m430.460938 209.796875h-147c-4.199219 0-7.601563 3.40625-7.601563 7.605469 0 4.199218 3.402344 7.601562 7.601563 7.601562h147c4.199218 0 7.601562-3.402344 7.601562-7.601562 0-4.199219-3.402344-7.605469-7.601562-7.605469zm0 0"/><path d="m430.460938 243.292969h-147c-4.199219 0-7.601563 3.402343-7.601563 7.601562s3.402344 7.605469 7.601563 7.605469h147c4.199218 0 7.601562-3.40625 7.601562-7.605469s-3.402344-7.601562-7.601562-7.601562zm0 0"/><path d="m438.066406 284.390625c0-4.199219-3.40625-7.601563-7.605468-7.601563h-147c-4.199219 0-7.601563 3.402344-7.601563 7.601563s3.402344 7.605469 7.601563 7.605469h147c4.199218 0 7.605468-3.40625 7.605468-7.605469zm0 0"/><path d="m283.460938 310.28125c-4.199219 0-7.601563 3.40625-7.601563 7.605469s3.402344 7.605469 7.601563 7.605469h74.292968c4.199219 0 7.601563-3.40625 7.601563-7.605469s-3.402344-7.605469-7.601563-7.605469zm0 0"/></svg>